<svg width="25" height="24" viewBox="0 0 25 24" fill="none" xmlns="http://www.w3.org/2000/svg">
<rect x="0.666016" width="24" height="24" rx="12" fill="#6D18DC"/>
<path d="M9.13326 18V16.558L11.9613 13.604C12.5213 13.016 12.9506 12.5493 13.2493 12.204C13.5573 11.8493 13.7719 11.546 13.8933 11.294C14.0146 11.042 14.0753 10.7853 14.0753 10.524C14.0753 10.0853 13.9353 9.74 13.6553 9.488C13.3846 9.236 13.0346 9.11 12.6053 9.11C12.1573 9.11 11.7699 9.24067 11.4433 9.502C11.1166 9.754 10.8786 10.1273 10.7293 10.622L9.06326 10.104C9.17526 9.55333 9.40392 9.07733 9.74926 8.676C10.0946 8.26533 10.5146 7.95267 11.0093 7.738C11.5133 7.514 12.0453 7.402 12.6053 7.402C13.2773 7.402 13.8653 7.52333 14.3693 7.766C14.8826 8.00867 15.2793 8.34933 15.5593 8.788C15.8486 9.22667 15.9933 9.74 15.9933 10.328C15.9933 10.7013 15.9233 11.07 15.7833 11.434C15.6433 11.798 15.4333 12.1713 15.1533 12.554C14.8733 12.9273 14.5093 13.3473 14.0613 13.814L11.6113 16.39H16.1333V18H9.13326Z" fill="white"/>
</svg>
