<svg width="25" height="24" viewBox="0 0 25 24" fill="none" xmlns="http://www.w3.org/2000/svg">
<rect x="0.333984" width="24" height="24" rx="12" fill="#6D18DC"/>
<path d="M12.1567 18.168C11.5874 18.168 11.046 18.0653 10.5327 17.86C10.0287 17.6453 9.59469 17.3467 9.23069 16.964C8.87602 16.572 8.63335 16.11 8.50269 15.578L10.1687 14.99C10.3367 15.466 10.5934 15.83 10.9387 16.082C11.284 16.3247 11.69 16.446 12.1567 16.446C12.53 16.446 12.852 16.376 13.1227 16.236C13.4027 16.096 13.622 15.8953 13.7807 15.634C13.9394 15.3633 14.0187 15.046 14.0187 14.682C14.0187 14.318 13.9394 14.01 13.7807 13.758C13.6314 13.4967 13.4167 13.296 13.1367 13.156C12.8567 13.016 12.5254 12.946 12.1427 12.946C11.9654 12.946 11.7787 12.9647 11.5827 13.002C11.396 13.0393 11.228 13.0953 11.0787 13.17L10.6447 12.26L13.3467 9.18H9.09069V7.57H15.4887V9.068L12.7727 12.246L12.8007 11.532C13.426 11.5413 13.972 11.6767 14.4387 11.938C14.9054 12.1993 15.2694 12.5587 15.5307 13.016C15.792 13.4733 15.9227 14.01 15.9227 14.626C15.9227 15.298 15.7594 15.9047 15.4327 16.446C15.106 16.978 14.658 17.398 14.0887 17.706C13.5194 18.014 12.8754 18.168 12.1567 18.168Z" fill="white"/>
</svg>
