<svg width="21" height="21" viewBox="0 0 21 21" fill="none" xmlns="http://www.w3.org/2000/svg">
<g clip-path="url(#clip0_314_2388)">
<path d="M8.13477 1.75H3.44727C2.75691 1.75 2.19727 2.30964 2.19727 3V7.6875C2.19727 8.37786 2.75691 8.9375 3.44727 8.9375H8.13477C8.82512 8.9375 9.38477 8.37786 9.38477 7.6875V3C9.38477 2.30964 8.82512 1.75 8.13477 1.75Z" fill="#464549"/>
<path d="M20.2707 4.465L16.9823 1.17656C16.8669 1.06113 16.7299 0.969567 16.5791 0.907095C16.4283 0.844624 16.2667 0.812469 16.1035 0.812469C15.9403 0.812469 15.7787 0.844624 15.6279 0.907095C15.4771 0.969567 15.3401 1.06113 15.2248 1.17656L11.9363 4.465C11.7035 4.69819 11.5728 5.01423 11.5728 5.34375C11.5728 5.67326 11.7035 5.98931 11.9363 6.2225L15.2248 9.51093C15.3401 9.62636 15.4771 9.71793 15.6279 9.7804C15.7787 9.84287 15.9403 9.87502 16.1035 9.87502C16.2667 9.87502 16.4283 9.84287 16.5791 9.7804C16.7299 9.71793 16.8669 9.62636 16.9823 9.51093L20.2707 6.2225C20.5035 5.98931 20.6343 5.67326 20.6343 5.34375C20.6343 5.01423 20.5035 4.69819 20.2707 4.465Z" fill="#464549"/>
<path d="M18.4473 12.0625H13.7598C13.0694 12.0625 12.5098 12.6221 12.5098 13.3125V18C12.5098 18.6904 13.0694 19.25 13.7598 19.25H18.4473C19.1376 19.25 19.6973 18.6904 19.6973 18V13.3125C19.6973 12.6221 19.1376 12.0625 18.4473 12.0625Z" fill="#464549"/>
<path d="M8.13477 12.0625H3.44727C2.75691 12.0625 2.19727 12.6221 2.19727 13.3125V18C2.19727 18.6904 2.75691 19.25 3.44727 19.25H8.13477C8.82512 19.25 9.38477 18.6904 9.38477 18V13.3125C9.38477 12.6221 8.82512 12.0625 8.13477 12.0625Z" fill="#464549"/>
</g>
<defs>
<clipPath id="clip0_314_2388">
<rect width="20" height="20" fill="white" transform="translate(0.947266 0.5)"/>
</clipPath>
</defs>
</svg>
