<svg width="48" height="48" viewBox="0 0 48 48" fill="none" xmlns="http://www.w3.org/2000/svg">
<path d="M8.274 20.4H27.6V42H8.274C7.6709 42 7.0925 41.7604 6.66604 41.334C6.23958 40.9075 6 40.3291 6 39.726V22.674C6 22.0709 6.23958 21.4925 6.66604 21.066C7.0925 20.6396 7.6709 20.4 8.274 20.4Z" fill="#FF8700"/>
<path d="M13.05 29.7C13.9613 29.7 14.7 28.9613 14.7 28.05C14.7 27.1387 13.9613 26.4 13.05 26.4C12.1387 26.4 11.4 27.1387 11.4 28.05C11.4 28.9613 12.1387 29.7 13.05 29.7Z" fill="white"/>
<path d="M16.014 34.554L14.004 32.346L10.2 37.2H14.148H18.582H24L19.068 30L16.014 34.554Z" fill="white"/>
<path d="M27.6 42L16.2 33H27.6V42Z" fill="#C56800"/>
<path opacity="0.2" d="M39 33H16.2V33.6H39C39.9548 33.6 40.8705 33.2207 41.5456 32.5456C42.2207 31.8704 42.6 30.9548 42.6 30V29.4C42.6 30.3548 42.2207 31.2704 41.5456 31.9456C40.8705 32.6207 39.9548 33 39 33Z" fill="black"/>
<path opacity="0.05" d="M39 33.6H16.2V34.2H39C39.9548 34.2 40.8705 33.8207 41.5456 33.1456C42.2207 32.4705 42.6 31.5548 42.6 30.6V30C42.6 30.9548 42.2207 31.8705 41.5456 32.5456C40.8705 33.2207 39.9548 33.6 39 33.6Z" fill="black"/>
<path d="M16.2 6.60001H39.822C40.5588 6.60001 41.2654 6.89269 41.7863 7.41366C42.3073 7.93464 42.6 8.64123 42.6 9.37801V30.222C42.6 30.5868 42.5281 30.9481 42.3885 31.2851C42.2489 31.6221 42.0443 31.9284 41.7863 32.1863C41.5284 32.4443 41.2221 32.6489 40.8851 32.7885C40.548 32.9282 40.1868 33 39.822 33H16.2V6.60001Z" fill="#F2F2F2"/>
<path d="M25.5 17.7H23.1V23.7H24.3V21.9H25.5C25.9774 21.9 26.4352 21.7104 26.7728 21.3728C27.1104 21.0352 27.3 20.5774 27.3 20.1V19.5C27.263 19.035 27.0614 18.5983 26.7315 18.2685C26.4017 17.9386 25.965 17.7371 25.5 17.7ZM25.59 20.7H24.3V18.9H25.59C25.7986 18.9386 25.9864 19.0506 26.1196 19.2157C26.2527 19.3807 26.3224 19.588 26.316 19.8C26.3295 19.9048 26.3221 20.0112 26.2944 20.1132C26.2667 20.2152 26.2192 20.3107 26.1546 20.3943C26.0899 20.4779 26.0094 20.5479 25.9177 20.6004C25.826 20.6528 25.7248 20.6867 25.62 20.7H25.59Z" fill="#E65156"/>
<path d="M29.754 17.7H27.9V23.7H29.568C30.4517 23.7597 31.3243 23.4759 32.004 22.908C32.568 22.386 32.7 21.708 32.7 20.7C32.7 19.692 32.574 18.99 32.034 18.474C31.4055 17.926 30.5862 17.6479 29.754 17.7ZM29.7 22.5H29.1V18.9H29.778C30.918 18.9 31.524 19.386 31.524 20.7C31.524 22.014 30.9 22.5 29.7 22.5Z" fill="#E65156"/>
<path d="M36.9 18.9V17.7H33.3V23.7H34.5V21.3H36.3V20.1H34.5V18.9H36.9Z" fill="#E65156"/>
</svg>
