<svg width="121" height="30" viewBox="0 0 121 30" fill="none" xmlns="http://www.w3.org/2000/svg">
<path d="M9.21904 24.5323C7.8918 24.5323 6.65802 24.2741 5.51771 23.7577C4.39609 23.2413 3.42402 22.5263 2.60151 21.6127C1.79768 20.6792 1.20883 19.5967 0.834961 18.3653L4.00353 16.9055C4.50825 18.1766 5.2373 19.1796 6.19068 19.9145C7.14405 20.6295 8.21893 20.987 9.41532 20.987C10.0883 20.987 10.6678 20.8778 11.1538 20.6593C11.6586 20.421 12.0418 20.1032 12.3035 19.7059C12.5839 19.3087 12.7241 18.832 12.7241 18.2759C12.7241 17.6205 12.5372 17.0842 12.1633 16.6671C11.8081 16.2302 11.266 15.8925 10.5369 15.6542L6.52716 14.2837C4.90082 13.7475 3.67639 12.9431 2.85387 11.8705C2.03135 10.798 1.62009 9.5368 1.62009 8.0869C1.62009 6.81576 1.90984 5.69358 2.48934 4.72036C3.08754 3.74714 3.91006 2.9924 4.9569 2.45614C6.02244 1.90001 7.23752 1.62195 8.60215 1.62195C9.85462 1.62195 11.0043 1.86029 12.0511 2.33697C13.098 2.79378 13.9953 3.43929 14.743 4.27347C15.5094 5.0878 16.0796 6.05109 16.4535 7.16334L13.3129 8.65296C12.9017 7.54071 12.2848 6.68666 11.4623 6.09081C10.6398 5.4751 9.68638 5.16725 8.60215 5.16725C7.96657 5.16725 7.40576 5.28642 6.91973 5.52475C6.43369 5.74323 6.05048 6.06102 5.77007 6.47811C5.50836 6.87535 5.37751 7.35202 5.37751 7.90815C5.37751 8.52386 5.56444 9.07005 5.93831 9.54673C6.31219 10.0035 6.88234 10.3611 7.64878 10.6193L11.4903 11.9003C13.154 12.4763 14.3972 13.2708 15.2197 14.2837C16.0609 15.2967 16.4815 16.5479 16.4815 18.0376C16.4815 19.3087 16.1731 20.4309 15.5562 21.4041C14.9393 22.3773 14.0887 23.142 13.0045 23.6981C11.9203 24.2543 10.6584 24.5323 9.21904 24.5323Z" fill="#23203D"/>
<path d="M18.2049 24.1748V7.96773H21.6539V11.1555L21.3735 10.5895C21.7286 9.61625 22.3081 8.88137 23.112 8.38483C23.9345 7.86842 24.8879 7.61022 25.9721 7.61022C27.0937 7.61022 28.0845 7.86842 28.9444 8.38483C29.823 8.90123 30.5053 9.62618 30.9913 10.5597C31.4774 11.4733 31.7204 12.5359 31.7204 13.7475V24.1748H28.0471V14.671C28.0471 13.956 27.9162 13.3403 27.6545 12.8239C27.3928 12.3075 27.0283 11.9103 26.5609 11.6322C26.1123 11.3343 25.5795 11.1853 24.9626 11.1853C24.3644 11.1853 23.8317 11.3343 23.3643 11.6322C22.897 11.9103 22.5325 12.3075 22.2708 12.8239C22.009 13.3403 21.8782 13.956 21.8782 14.671V24.1748H18.2049Z" fill="#23203D"/>
<path d="M38.0511 24.5323C36.9856 24.5323 36.0603 24.3436 35.2751 23.9663C34.49 23.5889 33.8825 23.0526 33.4525 22.3575C33.0226 21.6425 32.8076 20.8182 32.8076 19.8847C32.8076 18.9909 32.9945 18.1965 33.3684 17.5013C33.7423 16.7863 34.3218 16.1904 35.1069 15.7138C35.892 15.2371 36.8828 14.8994 38.0792 14.7008L43.0704 13.8368V16.8161L38.7802 17.5907C38.0511 17.7297 37.509 17.978 37.1539 18.3355C36.7987 18.693 36.6211 19.1598 36.6211 19.7357C36.6211 20.2919 36.8174 20.7387 37.2099 21.0764C37.6212 21.3942 38.1259 21.5531 38.7241 21.5531C39.4906 21.5531 40.1635 21.3843 40.743 21.0466C41.3412 20.6891 41.7992 20.2025 42.117 19.5868C42.4535 18.9711 42.6217 18.2958 42.6217 17.5609V13.39C42.6217 12.6948 42.36 12.1188 41.8366 11.662C41.3319 11.1853 40.6589 10.947 39.8177 10.947C39.0326 10.947 38.3316 11.1754 37.7147 11.6322C37.1165 12.0692 36.6772 12.6551 36.3968 13.39L33.3964 11.8407C33.6955 10.9867 34.1629 10.2518 34.7985 9.63611C35.4527 9.00054 36.2192 8.504 37.0978 8.14649C37.9764 7.78898 38.9297 7.61022 39.9579 7.61022C41.2104 7.61022 42.3133 7.85849 43.2667 8.35503C44.22 8.83171 44.9584 9.50701 45.4819 10.3809C46.024 11.235 46.295 12.238 46.295 13.39V24.1748H42.818V21.4041L43.6031 21.3445C43.2106 22.0397 42.7432 22.6256 42.2011 23.1023C41.659 23.5591 41.0421 23.9166 40.3505 24.1748C39.6588 24.4131 38.8924 24.5323 38.0511 24.5323Z" fill="#23203D"/>
<path d="M48.2881 29.7195V7.96773H51.7371V11.1853L51.4006 10.3809C51.924 9.50701 52.6343 8.83171 53.5316 8.35503C54.4289 7.85849 55.4664 7.61022 56.6441 7.61022C58.0835 7.61022 59.3827 7.98759 60.5417 8.74234C61.7007 9.49708 62.6167 10.51 63.2897 11.7812C63.9814 13.0523 64.3272 14.4823 64.3272 16.0713C64.3272 17.6403 63.9907 19.0704 63.3177 20.3614C62.6448 21.6524 61.7288 22.6753 60.5698 23.43C59.4108 24.1649 58.0929 24.5323 56.6161 24.5323C55.5132 24.5323 54.4944 24.3039 53.5597 23.8471C52.6437 23.3704 51.9146 22.6951 51.3725 21.8212L51.9614 21.0466V29.7195H48.2881ZM56.1955 20.9572C57.0367 20.9572 57.7844 20.7487 58.4387 20.3316C59.093 19.9145 59.5977 19.3385 59.9529 18.6036C60.3268 17.8687 60.5137 17.0246 60.5137 16.0713C60.5137 15.1179 60.3268 14.2837 59.9529 13.5687C59.5977 12.8338 59.093 12.2578 58.4387 11.8407C57.7844 11.4038 57.0367 11.1853 56.1955 11.1853C55.3917 11.1853 54.6626 11.3939 54.0083 11.811C53.3727 12.228 52.868 12.814 52.4941 13.5687C52.139 14.3036 51.9614 15.1378 51.9614 16.0713C51.9614 17.0246 52.139 17.8687 52.4941 18.6036C52.868 19.3385 53.3727 19.9145 54.0083 20.3316C54.6626 20.7487 55.3917 20.9572 56.1955 20.9572Z" fill="#23203D"/>
<path fill-rule="evenodd" clip-rule="evenodd" d="M120.48 1.62195C120.48 0.759847 119.822 0.0609741 119.011 0.0609741H68.3645C67.5537 0.0609741 66.8965 0.759848 66.8965 1.62195V27.378C66.8965 28.2402 67.5537 28.939 68.3645 28.939H112.702C113.092 28.939 113.465 28.7746 113.74 28.4818L120.05 21.7733C120.325 21.4806 120.48 21.0835 120.48 20.6695V1.62195Z" fill="#7E1DF9"/>
<path d="M71.4683 24.1887V4.81128H78.4642C79.7199 4.81128 80.8288 5.04537 81.7909 5.51355C82.7694 5.98173 83.5358 6.67533 84.0903 7.59435C84.6447 8.51337 84.922 9.64914 84.922 11.0017C84.922 12.3195 84.6366 13.4379 84.0658 14.357C83.5114 15.276 82.7449 15.9782 81.7665 16.4638C80.8043 16.9319 79.7036 17.166 78.4642 17.166H75.2598V24.1887H71.4683ZM75.2598 13.6547H78.4886C79.0268 13.6547 79.4916 13.542 79.8829 13.3166C80.2743 13.0911 80.576 12.779 80.788 12.3802C81.0163 11.9814 81.1305 11.5219 81.1305 11.0017C81.1305 10.4641 81.0163 9.99594 80.788 9.59712C80.576 9.1983 80.2743 8.88618 79.8829 8.66076C79.4916 8.43534 79.0268 8.32263 78.4886 8.32263H75.2598V13.6547Z" fill="white"/>
<path d="M86.6305 24.1887V4.81128H92.5746C94.5478 4.81128 96.2601 5.22744 97.7115 6.05976C99.1628 6.89208 100.288 8.03652 101.087 9.49308C101.886 10.9496 102.286 12.6143 102.286 14.487C102.286 16.3597 101.886 18.033 101.087 19.5069C100.288 20.9635 99.1628 22.1079 97.7115 22.9403C96.2601 23.7726 94.5478 24.1887 92.5746 24.1887H86.6305ZM90.422 20.6774H92.6724C93.8629 20.6774 94.8903 20.426 95.7546 19.9231C96.6189 19.4029 97.2875 18.6833 97.7604 17.7643C98.2496 16.8279 98.4942 15.7355 98.4942 14.487C98.4942 13.2212 98.2496 12.1288 97.7604 11.2097C97.2875 10.2907 96.6189 9.57978 95.7546 9.07692C94.8903 8.57406 93.8629 8.32263 92.6724 8.32263H90.422V20.6774Z" fill="white"/>
<path d="M104.042 24.1887V4.81128H116.517V8.32263H107.833V13.2385H115.294V16.7499H107.833V24.1887H104.042Z" fill="white"/>
</svg>
