<svg width="48" height="48" viewBox="0 0 48 48" fill="none" xmlns="http://www.w3.org/2000/svg">
<path d="M6.6 9.6H24V38.4H6.6C5.96348 38.4 5.35303 38.1471 4.90294 37.6971C4.45286 37.247 4.2 36.6365 4.2 36V12C4.2 11.3635 4.45286 10.753 4.90294 10.3029C5.35303 9.85286 5.96348 9.6 6.6 9.6Z" fill="#E13A40"/>
<path d="M16.2 25.944H13.506L12.954 27.6H11.4L14.04 19.92H15.6L18.234 27.6H16.68L16.2 25.944ZM13.884 24.744H15.822L14.874 21.744L13.884 24.744Z" fill="white"/>
<path d="M24 9.6H41.4C42.0365 9.6 42.647 9.85286 43.0971 10.3029C43.5471 10.753 43.8 11.3635 43.8 12V36C43.8 36.6365 43.5471 37.247 43.0971 37.6971C42.647 38.1471 42.0365 38.4 41.4 38.4H24V9.6Z" fill="#F26A6F"/>
<path d="M30.654 27.6V19.92H33.246C33.9872 19.8781 34.7237 20.0622 35.358 20.448C35.6089 20.6243 35.8106 20.8618 35.944 21.138C36.0774 21.4142 36.1379 21.7198 36.12 22.026C36.1252 22.3653 36.0268 22.6981 35.838 22.98C35.6357 23.2699 35.3485 23.49 35.016 23.61C35.4304 23.6781 35.8023 23.9038 36.054 24.24C36.2866 24.5674 36.4085 24.9605 36.402 25.362C36.4178 25.6728 36.3603 25.983 36.2342 26.2675C36.1081 26.552 35.9169 26.8029 35.676 27C35.0714 27.4282 34.3398 27.6396 33.6 27.6H30.654ZM32.196 23.136H33.306C33.641 23.1574 33.9739 23.0689 34.254 22.884C34.3646 22.7969 34.4524 22.6842 34.5099 22.5557C34.5674 22.4271 34.5928 22.2865 34.584 22.146C34.5954 21.9976 34.5709 21.8487 34.5124 21.7118C34.4539 21.575 34.3632 21.4543 34.248 21.36C33.9496 21.1709 33.5984 21.0826 33.246 21.108H32.19V23.136H32.196ZM32.196 24.204V26.4H33.6C33.9332 26.4237 34.2643 26.3303 34.536 26.136C34.6467 26.0387 34.7336 25.9171 34.7897 25.7808C34.8459 25.6445 34.87 25.4971 34.86 25.35C34.883 25.039 34.784 24.7313 34.584 24.492C34.4691 24.3841 34.3328 24.3017 34.184 24.25C34.0351 24.1983 33.877 24.1785 33.72 24.192H32.184L32.196 24.204Z" fill="white"/>
<g clip-path="url(#clip0_467_2946)">
<path d="M26.448 15H21.552C20.9158 15 20.4 15.5158 20.4 16.152V16.248C20.4 16.8842 20.9158 17.4 21.552 17.4H26.448C27.0842 17.4 27.6 16.8842 27.6 16.248V16.152C27.6 15.5158 27.0842 15 26.448 15Z" fill="#FAC2C4"/>
</g>
<g clip-path="url(#clip1_467_2946)">
<path d="M26.448 30.6H21.552C20.9158 30.6 20.4 31.1158 20.4 31.752V31.848C20.4 32.4842 20.9158 33 21.552 33H26.448C27.0842 33 27.6 32.4842 27.6 31.848V31.752C27.6 31.1158 27.0842 30.6 26.448 30.6Z" fill="#FAC2C4"/>
</g>
<defs>
<clipPath id="clip0_467_2946">
<rect width="7.2" height="2.4" fill="white" transform="translate(20.4 15)"/>
</clipPath>
<clipPath id="clip1_467_2946">
<rect width="7.2" height="2.4" fill="white" transform="translate(20.4 30.6)"/>
</clipPath>
</defs>
</svg>
