<svg width="48" height="48" viewBox="0 0 48 48" fill="none" xmlns="http://www.w3.org/2000/svg">
<path d="M8.274 20.4H27.6V42H8.274C7.6709 42 7.0925 41.7604 6.66604 41.334C6.23958 40.9075 6 40.3291 6 39.726V22.674C6 22.0709 6.23958 21.4925 6.66604 21.066C7.0925 20.6396 7.6709 20.4 8.274 20.4Z" fill="#E6E6E6"/>
<path d="M27.6 42L16.2 33H27.6V42Z" fill="#B3B3B3"/>
<path opacity="0.2" d="M39 33H16.2V33.6H39C39.9548 33.6 40.8704 33.2207 41.5456 32.5456C42.2207 31.8704 42.6 30.9548 42.6 30V29.4C42.6 30.3548 42.2207 31.2704 41.5456 31.9456C40.8704 32.6207 39.9548 33 39 33Z" fill="black"/>
<path opacity="0.05" d="M39 33.6H16.2V34.2H39C39.9548 34.2 40.8704 33.8207 41.5456 33.1456C42.2207 32.4705 42.6 31.5548 42.6 30.6V30C42.6 30.9548 42.2207 31.8705 41.5456 32.5456C40.8704 33.2207 39.9548 33.6 39 33.6Z" fill="black"/>
<path d="M16.2 6.6H39.822C40.5588 6.6 41.2654 6.89268 41.7863 7.41366C42.3073 7.93463 42.6 8.64123 42.6 9.378V30.222C42.6 30.5868 42.5281 30.948 42.3885 31.2851C42.2489 31.6221 42.0443 31.9284 41.7863 32.1863C41.5284 32.4443 41.2221 32.6489 40.8851 32.7885C40.548 32.9281 40.1868 33 39.822 33H16.2V6.6Z" fill="#4285F4"/>
<path d="M36 15H22.8V16.2H36V15Z" fill="white"/>
<path d="M36 18H22.8V19.2H36V18Z" fill="white"/>
<path d="M36 21H22.8V22.2H36V21Z" fill="white"/>
<path d="M36 24H22.8V25.2H36V24Z" fill="white"/>
</svg>
