<svg width="48" height="48" viewBox="0 0 48 48" fill="none" xmlns="http://www.w3.org/2000/svg">
<path d="M8.28 20.4H27.6V42H8.28C7.67531 42 7.09538 41.7598 6.6678 41.3322C6.24021 40.9046 6 40.3247 6 39.72V22.68C6 22.0753 6.24021 21.4954 6.6678 21.0678C7.09538 20.6402 7.67531 20.4 8.28 20.4Z" fill="#E6E6E6"/>
<path d="M27.6 42L16.2 33H27.6V42Z" fill="#B3B3B3"/>
<path opacity="0.2" d="M39 33H16.2V33.6H39C39.9548 33.6 40.8704 33.2207 41.5456 32.5456C42.2207 31.8704 42.6 30.9548 42.6 30V29.4C42.6 30.3548 42.2207 31.2704 41.5456 31.9456C40.8704 32.6207 39.9548 33 39 33Z" fill="black"/>
<path opacity="0.05" d="M39 33.6H16.2V34.2H39C39.9548 34.2 40.8704 33.8207 41.5456 33.1456C42.2207 32.4705 42.6 31.5548 42.6 30.6V30C42.6 30.9548 42.2207 31.8705 41.5456 32.5456C40.8704 33.2207 39.9548 33.6 39 33.6Z" fill="black"/>
<path d="M16.2 6.60001H39.84C40.2029 6.60001 40.5623 6.67159 40.8976 6.81067C41.2328 6.94975 41.5374 7.15359 41.7937 7.41051C42.0501 7.66744 42.2533 7.97241 42.3916 8.30796C42.53 8.64351 42.6008 9.00305 42.6 9.36601V30.234C42.6008 30.597 42.53 30.9565 42.3916 31.2921C42.2533 31.6276 42.0501 31.9326 41.7937 32.1895C41.5374 32.4464 41.2328 32.6503 40.8976 32.7893C40.5623 32.9284 40.2029 33 39.84 33H16.2V6.60001Z" fill="#FFC800"/>
<path d="M24.9 18C26.0598 18 27 17.0598 27 15.9C27 14.7402 26.0598 13.8 24.9 13.8C23.7402 13.8 22.8 14.7402 22.8 15.9C22.8 17.0598 23.7402 18 24.9 18Z" fill="white"/>
<path d="M32.1 17.4L28.62 22.92L26.22 20.28L21.6 26.4H37.8L32.1 17.4Z" fill="white"/>
</svg>
