<svg width="48" height="48" viewBox="0 0 48 48" fill="none" xmlns="http://www.w3.org/2000/svg">
<path d="M3.00001 9.6H19.8V38.4H3.00001C2.36349 38.4 1.75304 38.1471 1.30295 37.6971C0.852862 37.247 0.600006 36.6365 0.600006 36V12C0.600006 11.3635 0.852862 10.753 1.30295 10.3029C1.75304 9.85286 2.36349 9.6 3.00001 9.6Z" fill="#8E78C9"/>
<path d="M12.3 26.544H9.6L9.054 28.2H7.5L10.14 20.52H11.7L14.334 28.2H12.78L12.3 26.544ZM9.984 25.344H11.922L10.974 22.344L9.984 25.344Z" fill="white"/>
<path d="M28.2 9.6H45C45.6365 9.6 46.247 9.85286 46.6971 10.3029C47.1471 10.753 47.4 11.3635 47.4 12V36C47.4 36.6365 47.1471 37.247 46.6971 37.6971C46.247 38.1471 45.6365 38.4 45 38.4H28.2V9.6Z" fill="#735EAD"/>
<path d="M35.1 28.2V20.52H37.692C38.4332 20.4781 39.1697 20.6622 39.804 21.048C40.0549 21.2243 40.2566 21.4618 40.39 21.738C40.5233 22.0142 40.5839 22.3198 40.566 22.626C40.5712 22.9653 40.4728 23.2981 40.284 23.58C40.0817 23.8699 39.7945 24.09 39.462 24.21C39.8718 24.2705 40.2431 24.4851 40.5 24.81C40.7326 25.1374 40.8545 25.5305 40.848 25.932C40.8686 26.2478 40.8135 26.5639 40.6872 26.854C40.5609 27.1442 40.3671 27.3999 40.122 27.6C39.5161 28.0129 38.7896 28.2114 38.058 28.164H35.1V28.2ZM36.642 23.736H37.752C38.087 23.7574 38.4198 23.669 38.7 23.484C38.8052 23.3938 38.8872 23.2797 38.9394 23.1514C38.9916 23.023 39.0124 22.884 39 22.746C39.0114 22.5976 38.9868 22.4487 38.9283 22.3118C38.8698 22.175 38.7792 22.0543 38.664 21.96C38.3656 21.7709 38.0144 21.6826 37.662 21.708H36.636V23.736H36.642ZM36.642 24.804V27H38.058C38.3932 27.0251 38.7266 26.9317 39 26.736C39.1107 26.6387 39.1976 26.5171 39.2537 26.3808C39.3099 26.2445 39.334 26.0971 39.324 25.95C39.347 25.639 39.248 25.3313 39.048 25.092C38.9331 24.9841 38.7968 24.9017 38.6479 24.85C38.4991 24.7983 38.341 24.7785 38.184 24.792H36.642V24.804Z" fill="white"/>
<path d="M24 42.6V5.4" stroke="#8E78C9" stroke-width="2" stroke-miterlimit="10" stroke-dasharray="7 4"/>
</svg>
