<svg width="64" height="64" viewBox="0 0 64 64" fill="none" xmlns="http://www.w3.org/2000/svg">
<rect width="64" height="64" rx="20" fill="#F0E8FC"/>
<g clip-path="url(#clip0_509_6182)">
<path d="M50 32C50 35.5601 48.9443 39.0402 46.9665 42.0003C44.9886 44.9604 42.1774 47.2675 38.8883 48.6298C35.5992 49.9922 31.98 50.3487 28.4884 49.6541C24.9967 48.9596 21.7894 47.2453 19.2721 44.7279C16.7547 42.2106 15.0404 39.0033 14.3459 35.5116C13.6513 32.02 14.0078 28.4008 15.3702 25.1117C16.7326 21.8226 19.0397 19.0114 21.9997 17.0335C24.9598 15.0557 28.4399 14 32 14" stroke="#6D18DC" stroke-width="2" stroke-linecap="round" stroke-linejoin="round"/>
<path d="M44.2359 13.281C44.3618 13.0504 44.5475 12.8579 44.7735 12.7239C44.9995 12.5898 45.2574 12.519 45.5202 12.519C45.7829 12.519 46.0408 12.5898 46.2668 12.7239C46.4928 12.8579 46.6785 13.0504 46.8044 13.281L47.9389 15.3533C48.0751 15.6005 48.2755 15.8009 48.5226 15.9371L50.595 17.0696C50.8261 17.1954 51.019 17.3811 51.1534 17.6073C51.2878 17.8335 51.3587 18.0917 51.3587 18.3548C51.3587 18.6179 51.2878 18.8762 51.1534 19.1023C51.019 19.3285 50.8261 19.5143 50.595 19.6401L48.5226 20.7745C48.2755 20.9083 48.0727 21.1111 47.9389 21.3583L46.8044 23.4286C46.6785 23.6593 46.4928 23.8517 46.2668 23.9858C46.0408 24.1198 45.7829 24.1906 45.5202 24.1906C45.2574 24.1906 44.9995 24.1198 44.7735 23.9858C44.5475 23.8517 44.3618 23.6593 44.2359 23.4286L43.1015 21.3563C42.9677 21.1092 42.7648 20.9064 42.5177 20.7725L40.4454 19.6401C40.2143 19.5143 40.0214 19.3285 39.887 19.1023C39.7526 18.8762 39.6816 18.6179 39.6816 18.3548C39.6816 18.0917 39.7526 17.8335 39.887 17.6073C40.0214 17.3811 40.2143 17.1954 40.4454 17.0696L42.5177 15.9371C42.7642 15.8025 42.9669 15.5999 43.1015 15.3533L44.2359 13.281Z" stroke="#6D18DC" stroke-width="2"/>
<path d="M26 26.6602V28.6602" stroke="#6D18DC" stroke-width="2" stroke-linecap="round" stroke-linejoin="round"/>
<path d="M38 26.6602V28.6602" stroke="#6D18DC" stroke-width="2" stroke-linecap="round" stroke-linejoin="round"/>
<path d="M38.4836 37.3159C36.7637 39.0344 34.4319 39.9998 32.0006 39.9998C29.5693 39.9998 27.2375 39.0344 25.5176 37.3159" stroke="#6D18DC" stroke-width="2" stroke-linecap="round" stroke-linejoin="round"/>
</g>
<defs>
<clipPath id="clip0_509_6182">
<rect width="48" height="48" fill="white" transform="translate(8 8)"/>
</clipPath>
</defs>
</svg>
